<svg width="35" height="35" viewBox="0 0 35 35" fill="none" xmlns="http://www.w3.org/2000/svg">
<path d="M17.5 35C27.165 35 35 27.165 35 17.5C35 7.83502 27.165 0 17.5 0C7.83502 0 0 7.83502 0 17.5C0 27.165 7.83502 35 17.5 35Z" fill="#F28660"/>
<path d="M27.9586 22.7257L26.8843 19.0247L23.5437 20.9376L24.8328 21.4574C24.7289 23.793 23.5299 25.8445 21.7417 27.1128C20.3625 28.0901 18.4566 27.1128 18.4566 25.4217V15.5039H21.6447C22.1714 15.5039 22.6012 15.0742 22.6012 14.5475C22.6012 14.0208 22.1714 13.5911 21.6447 13.5911H18.4566V11.2554C20.2101 10.798 21.4784 9.1069 21.2635 7.1663C21.0695 5.43363 19.6695 4.0267 17.9368 3.83264C15.6566 3.5762 13.716 5.36432 13.716 7.596C13.716 9.34947 14.9219 10.8257 16.5437 11.2554V13.5911H13.3556C12.8289 13.5911 12.3992 14.0208 12.3992 14.5475C12.3992 15.0742 12.8289 15.5039 13.3556 15.5039H16.5437V25.4287C16.5437 27.1198 14.6378 28.097 13.2586 27.1198C11.4705 25.8514 10.2715 23.793 10.1675 21.4643L11.4566 20.9445L8.11601 19.0247L7.04175 22.7188L8.31007 22.2059C8.75363 25.9762 11.4635 29.0604 15.0398 30.0445C15.7259 30.2316 16.3566 30.5574 16.918 30.9871C17.0774 31.1118 17.2784 31.1812 17.4932 31.1812C17.7081 31.1812 17.9091 31.1049 18.0685 30.9871C18.6299 30.5574 19.2675 30.2316 19.9467 30.0445C23.5229 29.0604 26.2398 25.9693 26.6764 22.2059L27.9586 22.7257ZM15.6635 7.9564C15.414 6.63957 16.5507 5.50294 17.8675 5.75244C18.6021 5.89105 19.1982 6.48709 19.3368 7.22175C19.5863 8.53858 18.4497 9.67521 17.1328 9.42571C16.3982 9.28709 15.8021 8.69798 15.6635 7.9564Z" fill="white"/>
</svg>
